<svg xmlns="http://www.w3.org/2000/svg" xmlns:xlink="http://www.w3.org/1999/xlink" id="Layer_1" x="0" y="0" enable-background="new 0 0 195.4 160.9" version="1.1" viewBox="0 0 195.4 160.9" xml:space="preserve"><switch><g><g><g><path fill="#FFA400" d="M157.4,54.9h-9.5V50c0-3.9-3.2-7.1-7.1-7.1s-7.1,3.2-7.1,7.1v4.9h-9.5V50c0-9.2,7.5-16.6,16.6-16.6 c9.2,0,16.6,7.5,16.6,16.6V54.9z"/></g><path fill="#003A70" d="M161.3,54.9h-41c-1.8,0-3.2,1.4-3.2,3.2v30.3c0,1.8,1.4,3.2,3.2,3.2h41c1.8,0,3.2-1.4,3.2-3.2V58.1 C164.4,56.3,163,54.9,161.3,54.9z M142.8,74.8v4.1c0,1.1-0.9,2.1-2.1,2.1c-1.1,0-2.1-0.9-2.1-2.1v-4.1c-1.3-0.7-2.1-2.1-2.1-3.7 c0-2.3,1.9-4.2,4.2-4.2s4.2,1.9,4.2,4.2C145,72.7,144.1,74.1,142.8,74.8z"/><path fill="#FFA400" d="M116.1,50.4h-9.9c-1.6,0-2.9-1.3-2.9-2.9c0-1.6,1.3-2.9,2.9-2.9h9.9c1.6,0,2.9,1.3,2.9,2.9 C119,49.1,117.7,50.4,116.1,50.4z"/><path fill="#FFA400" d="M123.1,34.8c-0.6,0-1.3-0.2-1.8-0.7l-7.8-6.4c-1.2-1-1.4-2.8-0.4-4.1c1-1.2,2.8-1.4,4.1-0.4l7.8,6.4 c1.2,1,1.4,2.8,0.4,4.1C124.7,34.4,123.9,34.8,123.1,34.8z"/><path fill="#FFA400" d="M140.8,28c-1.6,0-2.9-1.3-2.9-2.9v-10c0-1.6,1.3-2.9,2.9-2.9s2.9,1.3,2.9,2.9v10 C143.7,26.7,142.4,28,140.8,28z"/><g><path fill="#FFA400" d="M158.4,34.8c-0.8,0-1.7-0.4-2.2-1.1c-1-1.2-0.8-3.1,0.4-4.1l7.8-6.4c1.2-1,3.1-0.8,4.1,0.4 c1,1.2,0.8,3.1-0.4,4.1l-7.8,6.4C159.7,34.6,159.1,34.8,158.4,34.8z"/></g><path fill="#FFA400" d="M175.3,50.4h-10c-1.6,0-2.9-1.3-2.9-2.9c0-1.6,1.3-2.9,2.9-2.9h10c1.6,0,2.9,1.3,2.9,2.9 C178.2,49.1,176.9,50.4,175.3,50.4z"/><path fill="#003A70" d="M13.9,91.2V58.9h7.8v25.5h12.5v6.8H13.9z"/><path fill="#003A70" d="M60,80.1c0,0.3,0,0.6,0,0.9c0,0.3,0,0.6,0,0.9H43.5c0.1,0.6,0.3,1.2,0.6,1.7c0.3,0.5,0.7,1,1.2,1.3 c0.5,0.4,1.1,0.7,1.7,0.9c0.6,0.2,1.3,0.3,1.9,0.3c1.2,0,2.2-0.2,3-0.7c0.8-0.4,1.5-1,2-1.7l5.2,3.3c-1.1,1.6-2.5,2.7-4.2,3.6 c-1.7,0.8-3.8,1.3-6.1,1.3c-1.7,0-3.3-0.3-4.8-0.8c-1.5-0.5-2.8-1.3-4-2.3c-1.1-1-2-2.3-2.7-3.8c-0.7-1.5-1-3.2-1-5.1 c0-1.9,0.3-3.5,1-5c0.6-1.5,1.5-2.8,2.6-3.8s2.4-1.9,3.9-2.4c1.5-0.6,3.1-0.9,4.8-0.9c1.7,0,3.2,0.3,4.6,0.8 c1.4,0.6,2.6,1.4,3.6,2.4c1,1.1,1.8,2.4,2.3,3.9C59.7,76.5,60,78.2,60,80.1z M53.1,77.3c0-1.2-0.4-2.2-1.1-3.1 c-0.7-0.9-1.9-1.3-3.4-1.3c-0.7,0-1.4,0.1-2,0.3c-0.6,0.2-1.1,0.5-1.6,0.9c-0.5,0.4-0.8,0.9-1.1,1.4c-0.3,0.5-0.4,1.1-0.5,1.7 H53.1z"/><path fill="#003A70" d="M72,74.1v8.7c0,1.1,0.2,1.9,0.6,2.4c0.4,0.5,1.1,0.8,2.2,0.8c0.4,0,0.8,0,1.2-0.1c0.4-0.1,0.8-0.2,1-0.3 l0.1,5.5c-0.5,0.2-1.2,0.3-2,0.5c-0.8,0.1-1.6,0.2-2.4,0.2c-1.5,0-2.8-0.2-3.8-0.6c-1-0.4-1.9-0.9-2.5-1.6 c-0.6-0.7-1.1-1.6-1.3-2.6s-0.4-2.1-0.4-3.3v-9.6H61v-5.6h3.6v-6H72v6h5.3v5.6H72z"/><path fill="#003A70" d="M101.5,75.2c-0.6-0.6-1.3-1.1-2.1-1.5c-0.8-0.4-1.7-0.6-2.6-0.6c-0.7,0-1.3,0.1-1.9,0.4 c-0.6,0.3-0.9,0.7-0.9,1.4c0,0.6,0.3,1.1,1,1.4c0.7,0.3,1.7,0.6,3.2,0.9c0.9,0.2,1.7,0.4,2.6,0.8s1.6,0.8,2.3,1.3 c0.7,0.5,1.3,1.2,1.7,2c0.4,0.8,0.6,1.7,0.6,2.8c0,1.4-0.3,2.6-0.9,3.6c-0.6,1-1.3,1.8-2.3,2.4c-0.9,0.6-2,1-3.1,1.3 c-1.2,0.3-2.3,0.4-3.5,0.4c-1.9,0-3.7-0.3-5.4-0.9c-1.8-0.6-3.3-1.5-4.4-2.6l4.2-4.4c0.7,0.7,1.5,1.3,2.5,1.8 c1,0.5,2,0.7,3.1,0.7c0.6,0,1.2-0.1,1.8-0.4c0.6-0.3,0.9-0.8,0.9-1.5c0-0.7-0.4-1.2-1.1-1.6c-0.7-0.3-1.9-0.7-3.4-1 c-0.8-0.2-1.6-0.4-2.4-0.7c-0.8-0.3-1.5-0.7-2.1-1.2c-0.6-0.5-1.1-1.2-1.5-1.9c-0.4-0.8-0.6-1.7-0.6-2.7c0-1.4,0.3-2.5,0.9-3.5 c0.6-1,1.3-1.7,2.2-2.3c0.9-0.6,1.9-1.1,3-1.3c1.1-0.3,2.2-0.4,3.3-0.4c1.7,0,3.4,0.3,5,0.8c1.6,0.5,3,1.3,4.1,2.4L101.5,75.2z"/><path fill="#003A70" d="M13.9,128.6V96.3h21.7v6.6H21.4v6.1h13.4v6.2H21.4v6.7h15v6.7H13.9z"/><path fill="#003A70" d="M56.1,128.6v-12.4c0-0.6-0.1-1.2-0.2-1.8c-0.1-0.6-0.3-1.1-0.5-1.5c-0.2-0.4-0.6-0.8-1-1 c-0.4-0.3-1-0.4-1.7-0.4c-0.7,0-1.3,0.1-1.8,0.4c-0.5,0.3-0.9,0.6-1.3,1.1c-0.3,0.5-0.6,1-0.8,1.6s-0.3,1.2-0.3,1.8v12.3h-7.5 v-22.7h7.2v3.1h0.1c0.3-0.5,0.6-1,1.1-1.4c0.4-0.5,1-0.9,1.5-1.2c0.6-0.3,1.2-0.6,1.9-0.8c0.7-0.2,1.4-0.3,2.2-0.3 c1.5,0,2.8,0.3,3.9,0.8c1.1,0.5,1.9,1.3,2.6,2.1c0.7,0.9,1.1,1.9,1.4,3c0.3,1.1,0.4,2.2,0.4,3.4v14H56.1z"/><path fill="#003A70" d="M82.9,113.2c-0.4-0.5-1-1-1.7-1.3c-0.7-0.3-1.5-0.5-2.2-0.5c-0.8,0-1.5,0.2-2.1,0.5 c-0.6,0.3-1.2,0.7-1.6,1.3s-0.8,1.1-1.1,1.8c-0.3,0.7-0.4,1.4-0.4,2.2c0,0.8,0.1,1.5,0.4,2.2c0.2,0.7,0.6,1.3,1.1,1.8 c0.5,0.5,1,1,1.7,1.3c0.7,0.3,1.4,0.5,2.2,0.5c0.8,0,1.5-0.1,2.3-0.4c0.7-0.3,1.3-0.7,1.8-1.3l4.1,5.1c-0.9,0.9-2.2,1.6-3.6,2.1 c-1.5,0.5-3.1,0.8-4.7,0.8c-1.8,0-3.5-0.3-5-0.8c-1.6-0.5-2.9-1.3-4.1-2.4c-1.1-1-2-2.3-2.7-3.8c-0.7-1.5-1-3.2-1-5.1 c0-1.9,0.3-3.5,1-5c0.7-1.5,1.6-2.8,2.7-3.8c1.1-1,2.5-1.9,4.1-2.4c1.6-0.6,3.2-0.8,5-0.8c0.8,0,1.6,0.1,2.4,0.2 c0.8,0.2,1.6,0.4,2.3,0.6c0.7,0.3,1.4,0.6,2.1,1c0.6,0.4,1.2,0.8,1.6,1.3L82.9,113.2z"/><path fill="#003A70" d="M104.7,112.1c-0.3-0.1-0.7-0.2-1-0.2c-0.3,0-0.6,0-0.9,0c-1,0-1.8,0.2-2.5,0.5c-0.7,0.4-1.2,0.8-1.6,1.3 c-0.4,0.5-0.7,1.1-0.9,1.7c-0.2,0.6-0.3,1.1-0.3,1.6v11.6H90v-22.7h7.2v3.3h0.1c0.6-1.2,1.4-2.1,2.5-2.8c1.1-0.7,2.3-1.1,3.7-1.1 c0.3,0,0.6,0,0.9,0c0.3,0,0.5,0.1,0.7,0.1L104.7,112.1z"/><path fill="#003A70" d="M122.3,132c-0.5,1.2-1,2.2-1.5,3.2c-0.6,0.9-1.2,1.7-2,2.4c-0.8,0.7-1.7,1.1-2.7,1.5 c-1,0.3-2.3,0.5-3.7,0.5c-0.7,0-1.4,0-2.2-0.1c-0.7-0.1-1.4-0.2-1.9-0.4l0.8-6.3c0.4,0.1,0.8,0.2,1.2,0.3 c0.4,0.1,0.8,0.1,1.2,0.1c1.2,0,2-0.3,2.5-0.8c0.5-0.5,1-1.3,1.3-2.3l0.7-1.9l-9.5-22.3h8.3l5.1,14.6h0.1l4.5-14.6h7.9L122.3,132 z"/><path fill="#003A70" d="M159.7,117.2c0,1.6-0.2,3.1-0.7,4.6c-0.5,1.5-1.2,2.7-2.1,3.9c-0.9,1.1-2.1,2-3.4,2.7 c-1.3,0.7-2.9,1-4.6,1c-1.4,0-2.7-0.3-4-0.8c-1.2-0.6-2.2-1.3-2.9-2.3h-0.1v13.5h-7.5v-33.6h7.1v2.8h0.1c0.7-0.9,1.7-1.7,2.9-2.4 s2.7-1,4.4-1c1.6,0,3.1,0.3,4.5,1c1.3,0.6,2.5,1.5,3.4,2.6c0.9,1.1,1.6,2.4,2.1,3.8C159.4,114.1,159.7,115.6,159.7,117.2z M152.4,117.2c0-0.7-0.1-1.4-0.3-2.1c-0.2-0.7-0.6-1.3-1-1.8c-0.4-0.5-1-1-1.7-1.3c-0.7-0.3-1.4-0.5-2.3-0.5 c-0.9,0-1.6,0.2-2.3,0.5c-0.7,0.3-1.2,0.8-1.7,1.3c-0.5,0.5-0.8,1.2-1.1,1.9c-0.3,0.7-0.4,1.4-0.4,2.1s0.1,1.4,0.4,2.1 c0.3,0.7,0.6,1.3,1.1,1.9c0.5,0.5,1,1,1.7,1.3c0.7,0.3,1.4,0.5,2.3,0.5c0.9,0,1.7-0.2,2.3-0.5c0.7-0.3,1.2-0.8,1.7-1.3 c0.4-0.5,0.8-1.2,1-1.9C152.3,118.6,152.4,117.9,152.4,117.2z"/><path fill="#003A70" d="M171.6,111.5v8.7c0,1.1,0.2,1.9,0.6,2.4c0.4,0.5,1.1,0.8,2.2,0.8c0.4,0,0.8,0,1.2-0.1s0.8-0.2,1-0.3 l0.1,5.5c-0.5,0.2-1.2,0.3-2,0.5c-0.8,0.1-1.6,0.2-2.4,0.2c-1.5,0-2.8-0.2-3.8-0.6c-1-0.4-1.9-0.9-2.5-1.6 c-0.6-0.7-1.1-1.6-1.3-2.6s-0.4-2.1-0.4-3.3v-9.6h-3.6v-5.6h3.6v-6h7.3v6h5.3v5.6H171.6z"/><path fill="#003A70" d="M84.2,58.3c-2.2,0-4,1.6-4,3.7c0,2.2,1.5,3.6,3.7,3.6c0.2,0,0.4,0,0.5-0.1c-0.4,1.6-1.9,2.8-3.4,3l-0.3,0 v3.5l0.4,0c1.8-0.2,3.5-1,4.8-2.2c1.7-1.6,2.6-4,2.6-6.8C88.5,60.3,86.7,58.3,84.2,58.3z"/></g></g></switch></svg>